<?xml version="1.0" encoding="utf-8"?>
<!-- Generator: Adobe Illustrator 24.0.2, SVG Export Plug-In . SVG Version: 6.00 Build 0)  -->
<svg version="1.1" id="Capa_1" xmlns="http://www.w3.org/2000/svg" xmlns:xlink="http://www.w3.org/1999/xlink" x="0px" y="0px"
	 viewBox="0 0 598.55 195" style="enable-background:new 0 0 598.55 195;" xml:space="preserve">
<style type="text/css">
	.st0{fill:#263E44;}
	.st1{fill:url(#SVGID_1_);}
	.st2{fill:url(#SVGID_2_);}
	.st3{fill:url(#SVGID_3_);}
</style>
<g>
	<g>
		<path class="st0" d="M283.95,119.59c0.34,0,0.65,0.06,0.94,0.17c0.28,0.11,0.54,0.28,0.76,0.51c0.23,0.23,0.4,0.48,0.51,0.76
			c0.11,0.28,0.17,0.59,0.17,0.94v53.28c0,0.68-0.23,1.26-0.68,1.74c-0.45,0.48-1.02,0.72-1.7,0.72h-1.44
			c-0.91,0-1.59-0.4-2.04-1.19l-27.45-47.85v46.57c0,0.68-0.24,1.26-0.72,1.74c-0.48,0.48-1.05,0.72-1.7,0.72
			c-0.65,0-1.22-0.24-1.7-0.72c-0.48-0.48-0.72-1.06-0.72-1.74v-53.37c0-0.68,0.24-1.25,0.72-1.7c0.48-0.45,1.06-0.68,1.74-0.68
			h1.27c0.96,0,1.67,0.4,2.12,1.19l27.45,47.93v-46.65c0-0.68,0.24-1.25,0.72-1.7C282.69,119.82,283.27,119.59,283.95,119.59z"/>
		<path class="st0" d="M336.47,119.59c0.68,0,1.25,0.23,1.7,0.68c0.45,0.45,0.68,1.02,0.68,1.7c0,0.68-0.23,1.26-0.68,1.74
			c-0.45,0.48-1.02,0.72-1.7,0.72h-28.3v21.75h20.99c0.68,0,1.26,0.24,1.74,0.72c0.48,0.48,0.72,1.06,0.72,1.74s-0.24,1.25-0.72,1.7
			c-0.48,0.45-1.06,0.68-1.74,0.68h-20.99v24.3c0,0.62-0.24,1.18-0.72,1.66c-0.48,0.48-1.05,0.72-1.7,0.72
			c-0.65,0-1.22-0.24-1.7-0.72c-0.48-0.48-0.72-1.03-0.72-1.66v-53.37c0-0.68,0.24-1.25,0.72-1.7c0.48-0.45,1.06-0.68,1.74-0.68
			H336.47z"/>
		<path class="st0" d="M391.06,119.59c0.68,0,1.25,0.23,1.7,0.68c0.45,0.45,0.68,1.02,0.68,1.7c0,0.68-0.23,1.26-0.68,1.74
			c-0.45,0.48-1.02,0.72-1.7,0.72h-17v50.9c0,0.62-0.23,1.18-0.68,1.66c-0.45,0.48-1.02,0.72-1.7,0.72s-1.26-0.24-1.74-0.72
			c-0.48-0.48-0.72-1.03-0.72-1.66v-50.9h-16.91c-0.45,0-0.87-0.11-1.23-0.34c-0.37-0.23-0.67-0.52-0.89-0.89
			c-0.23-0.37-0.34-0.78-0.34-1.23c0-0.68,0.24-1.25,0.72-1.7c0.48-0.45,1.06-0.68,1.74-0.68H391.06z"/>
	</g>
	<g>
		<g>
			<path class="st0" d="M331.37,21.7h-2.72c-2.57,0-4.65,2.08-4.65,4.65V84.7v6.58c0,3,2.43,5.43,5.43,5.43h6.58h27.28
				c2.63,0,4.76-2.13,4.76-4.76v-2.5c0-2.63-2.13-4.76-4.76-4.76h-22.48c-2.65,0-4.8-2.15-4.8-4.8V26.34
				C336.02,23.78,333.94,21.7,331.37,21.7z"/>
			<path class="st0" d="M456.14,21.7c-2.7,0-4.89,2.19-4.89,4.89v7.12V53.2v12.01V84.7v7.12c0,2.7,2.19,4.89,4.89,4.89h7.12h31.33
				c2.37,0,4.29-1.92,4.29-4.29V89c0-2.37-1.92-4.29-4.29-4.29h-27.08c-2.35,0-4.25-1.9-4.25-4.25V69.47c0-2.35,1.9-4.25,4.25-4.25
				h22.77c2.37,0,4.29-1.92,4.29-4.29v-3.43c0-2.37-1.92-4.29-4.29-4.29h-22.77c-2.35,0-4.25-1.9-4.25-4.25V37.96
				c0-2.35,1.9-4.25,4.25-4.25h27.08c2.37,0,4.29-1.92,4.29-4.29v-3.43c0-2.37-1.92-4.29-4.29-4.29h-31.33H456.14z"/>
			<path class="st0" d="M272.26,25.51l-26.34,64.53c-1.3,3.19,1.04,6.67,4.48,6.67h2.27c1.97,0,3.74-1.19,4.48-3.01l3.69-9.05
				c1.03-2.52,3.48-4.17,6.21-4.17h27.21c2.73,0,5.18,1.65,6.21,4.17l3.69,9.05c0.74,1.82,2.52,3.01,4.48,3.01h2.27
				c3.44,0,5.78-3.49,4.48-6.67l-26.34-64.53c-0.94-2.31-3.19-3.82-5.68-3.82h-5.46C275.44,21.7,273.2,23.21,272.26,25.51z
				 M269.95,62.36l6.62-16.22c1.5-3.67,6.7-3.67,8.2,0l6.62,16.22c1.19,2.91-0.95,6.1-4.1,6.1h-13.24
				C270.9,68.47,268.76,65.28,269.95,62.36z"/>
			<path class="st0" d="M531.6,25.51l-26.34,64.53c-1.3,3.19,1.04,6.67,4.48,6.67h2.27c1.97,0,3.74-1.19,4.48-3.01l3.69-9.05
				c1.03-2.52,3.48-4.17,6.21-4.17h27.21c2.73,0,5.18,1.65,6.21,4.17l3.69,9.05c0.74,1.82,2.52,3.01,4.48,3.01h2.27
				c3.44,0,5.78-3.49,4.48-6.67l-26.34-64.53c-0.94-2.31-3.19-3.82-5.68-3.82h-5.46C534.79,21.7,532.54,23.21,531.6,25.51z
				 M529.29,62.36l6.62-16.22c1.5-3.67,6.7-3.67,8.2,0l6.62,16.22c1.19,2.91-0.95,6.1-4.1,6.1h-13.24
				C530.25,68.47,528.11,65.28,529.29,62.36z"/>
			<path class="st0" d="M403.66,21.7h-15.13l0,0h-6.75c-2.91,0-5.26,2.36-5.26,5.26v64.49c0,2.91,2.36,5.26,5.26,5.26h22.5l0,0
				c20.93,0,37.85-17.14,37.5-38.15C441.44,38,424.23,21.7,403.66,21.7z M404.28,84.63v0.07H393.4c-2.69,0-4.87-2.18-4.87-4.87
				V38.58c0-2.69,2.18-4.87,4.87-4.87h10.88v0.07c14.04,0,25.42,11.38,25.42,25.42C429.7,73.25,418.32,84.63,404.28,84.63z"/>
		</g>
	</g>
	<g>
		<linearGradient id="SVGID_1_" gradientUnits="userSpaceOnUse" x1="112.7664" y1="21.6988" x2="112.7664" y2="95.7336">
			<stop  offset="0" style="stop-color:#EAE22A"/>
			<stop  offset="0.3219" style="stop-color:#E1B931"/>
			<stop  offset="0.6225" style="stop-color:#D98F31"/>
			<stop  offset="0.7653" style="stop-color:#D67C30"/>
		</linearGradient>
		<path class="st1" d="M153.5,29.1L153.5,29.1c0,4.09-3.31,7.4-7.4,7.4h0c-4.09,0-7.4-3.31-7.4-7.4v0c0-4.09,3.31-7.4,7.4-7.4h0
			C150.18,21.7,153.5,25.01,153.5,29.1z M54.49,51.31h-5.02c-4.09,0-7.4,3.31-7.4,7.4v0c0,4.09,3.31,7.4,7.4,7.4h5.02
			c4.09,0,7.4-3.31,7.4-7.4v0C61.89,54.63,58.58,51.31,54.49,51.31z M138.39,73.52L138.39,73.52c0-4.09,3.31-7.4,7.4-7.4h30.27
			c4.09,0,7.4-3.31,7.4-7.4v0c0-4.09-3.31-7.4-7.4-7.4h-59.12c-4.09,0-7.4-3.31-7.4-7.4v0c0-4.09,3.31-7.4,7.4-7.4h4.7
			c4.09,0,7.4-3.31,7.4-7.4v0c0-4.09-3.31-7.4-7.4-7.4H73.45c-4.09,0-7.4,3.31-7.4,7.4v0c0,4.09,3.31,7.4,7.4,7.4h6.93
			c4.09,0,7.4,3.31,7.4,7.4v0c0,4.09-3.31,7.4-7.4,7.4h-1.43c-4.09,0-7.4,3.31-7.4,7.4v0c0,4.09,3.31,7.4,7.4,7.4h3.24
			c4.09,0,7.4,3.31,7.4,7.4v0c0,4.09-3.31,7.4-7.4,7.4H34.44c-4.09,0-7.4,3.31-7.4,7.4v0c0,4.09,3.31,7.4,7.4,7.4h156.65
			c4.09,0,7.4-3.31,7.4-7.4v0c0-4.09-3.31-7.4-7.4-7.4h-45.3C141.7,80.93,138.39,77.61,138.39,73.52z"/>
		<linearGradient id="SVGID_2_" gradientUnits="userSpaceOnUse" x1="112.7664" y1="180.3447" x2="112.7664" y2="106.31">
			<stop  offset="0" style="stop-color:#7FB13F"/>
			<stop  offset="0.1806" style="stop-color:#74AC61"/>
			<stop  offset="0.5855" style="stop-color:#59A3A9"/>
			<stop  offset="0.7653" style="stop-color:#4D9FC2"/>
		</linearGradient>
		<path class="st2" d="M84.59,113.71L84.59,113.71c0-4.09,3.31-7.4,7.4-7.4h99.09c4.09,0,7.4,3.31,7.4,7.4v0
			c0,4.09-3.31,7.4-7.4,7.4h-18.21c-4.09,0-7.4,3.31-7.4,7.4v0c0,4.09,3.31,7.4,7.4,7.4h3.17c4.09,0,7.4,3.31,7.4,7.4v0
			c0,4.09-3.31,7.4-7.4,7.4h-32.91c-4.09,0-7.4,3.31-7.4,7.4v0c0,4.09,3.31,7.4,7.4,7.4h2.94c4.09,0,7.4,3.31,7.4,7.4v0
			c0,4.09-3.31,7.4-7.4,7.4h-45.78c-4.09,0-7.4-3.31-7.4-7.4v0c0-4.09,3.31-7.4,7.4-7.4h5.05c4.09,0,7.4-3.31,7.4-7.4v0
			c0-4.09-3.31-7.4-7.4-7.4H87c-4.09,0-7.4-3.31-7.4-7.4v0c0-4.09,3.31-7.4,7.4-7.4h14.59c4.09,0,7.4-3.31,7.4-7.4v0
			c0-4.09-3.31-7.4-7.4-7.4H92C87.91,121.12,84.59,117.8,84.59,113.71z M61.52,106.31H34.44c-4.09,0-7.4,3.31-7.4,7.4v0
			c0,4.09,3.31,7.4,7.4,7.4h27.08c4.09,0,7.4-3.31,7.4-7.4v0C68.93,109.62,65.61,106.31,61.52,106.31z M61.52,135.92H50.43
			c-4.09,0-7.4,3.31-7.4,7.4v0c0,4.09,3.31,7.4,7.4,7.4h11.09c4.09,0,7.4-3.31,7.4-7.4v0C68.93,139.24,65.61,135.92,61.52,135.92z
			 M73.45,180.34h1.86c4.09,0,7.4-3.31,7.4-7.4v0c0-4.09-3.31-7.4-7.4-7.4h-1.86c-4.09,0-7.4,3.31-7.4,7.4v0
			C66.05,177.03,69.36,180.34,73.45,180.34z M141.09,135.92h1.86c4.09,0,7.4-3.31,7.4-7.4v0c0-4.09-3.31-7.4-7.4-7.4h-1.86
			c-4.09,0-7.4,3.31-7.4,7.4v0C133.68,132.61,137,135.92,141.09,135.92z"/>
		<linearGradient id="SVGID_3_" gradientUnits="userSpaceOnUse" x1="112.7664" y1="62.8935" x2="112.7664" y2="139.1499">
			<stop  offset="0" style="stop-color:#C83F34;stop-opacity:0.2"/>
			<stop  offset="0.4311" style="stop-color:#9C4950"/>
			<stop  offset="0.574" style="stop-color:#7E4E66"/>
			<stop  offset="1" style="stop-color:#2D599F;stop-opacity:0.2"/>
		</linearGradient>
		<path class="st3" d="M133.72,129.23l-13.91,8.03c-4.36,2.52-9.73,2.52-14.09,0l-2.6-1.5c3.35-0.71,5.87-3.68,5.87-7.24
			c0-4.09-3.31-7.4-7.4-7.4H92c-4.09,0-7.4-3.31-7.4-7.4c0-4.09,3.31-7.4,7.4-7.4h55.68v6.73c0,3.06-1,5.97-2.75,8.35
			c-0.63-0.18-1.29-0.28-1.98-0.28h-1.86c-4.09,0-7.4,3.31-7.4,7.4C133.68,128.76,133.7,129,133.72,129.23z M147.67,89
			c0-2.95-0.93-5.77-2.58-8.11c-3.03-0.28-5.52-2.38-6.39-5.2l-18.9-10.91c-4.36-2.52-9.73-2.52-14.09,0l-16.16,9.33
			c-0.3,3.81-3.48,6.82-7.37,6.82h-1.78c-1.63,2.33-2.55,5.13-2.55,8.07v6.73h69.81V89z"/>
	</g>
</g>
</svg>
