<?xml version="1.0" encoding="utf-8"?>
<!-- Generator: Adobe Illustrator 24.0.2, SVG Export Plug-In . SVG Version: 6.00 Build 0)  -->
<svg version="1.1" id="Capa_1" xmlns="http://www.w3.org/2000/svg" xmlns:xlink="http://www.w3.org/1999/xlink" x="0px" y="0px"
	 viewBox="0 0 598.5 195" style="enable-background:new 0 0 598.5 195;" xml:space="preserve">
<style type="text/css">
	.st0{fill:#263E44;}
	.st1{fill:url(#SVGID_1_);}
	.st2{fill:url(#SVGID_2_);}
	.st3{fill:url(#SVGID_3_);}
	.st4{fill:url(#SVGID_4_);}
</style>
<g>
	<g>
		<g>
			<path class="st0" d="M312,19.5h-2.7c-2.6,0-4.7,2.1-4.7,4.7v58.7v6.6c0,3,2.4,5.5,5.5,5.5h6.6h27.4c2.6,0,4.8-2.1,4.8-4.8v-2.5
				c0-2.6-2.1-4.8-4.8-4.8h-22.6c-2.7,0-4.8-2.2-4.8-4.8V24.2C316.7,21.6,314.6,19.5,312,19.5z"/>
			<path class="st0" d="M437.5,19.5c-2.7,0-4.9,2.2-4.9,4.9v7.2v19.6v12.1v19.6V90c0,2.7,2.2,4.9,4.9,4.9h7.2h31.5
				c2.4,0,4.3-1.9,4.3-4.3v-3.4c0-2.4-1.9-4.3-4.3-4.3h-27.2c-2.4,0-4.3-1.9-4.3-4.3v-11c0-2.4,1.9-4.3,4.3-4.3h22.9
				c2.4,0,4.3-1.9,4.3-4.3v-3.4c0-2.4-1.9-4.3-4.3-4.3h-22.9c-2.4,0-4.3-1.9-4.3-4.3v-11c0-2.4,1.9-4.3,4.3-4.3h27.2
				c2.4,0,4.3-1.9,4.3-4.3v-3.4c0-2.4-1.9-4.3-4.3-4.3h-31.5H437.5z"/>
			<path class="st0" d="M252.6,23.3l-26.5,64.9c-1.3,3.2,1,6.7,4.5,6.7h2.3c2,0,3.8-1.2,4.5-3l3.7-9.1c1-2.5,3.5-4.2,6.2-4.2h27.4
				c2.7,0,5.2,1.7,6.2,4.2l3.7,9.1c0.7,1.8,2.5,3,4.5,3h2.3c3.5,0,5.8-3.5,4.5-6.7l-26.5-64.9c-0.9-2.3-3.2-3.8-5.7-3.8h-5.5
				C255.8,19.5,253.5,21,252.6,23.3z M250.3,60.4l6.7-16.3c1.5-3.7,6.7-3.7,8.2,0l6.7,16.3c1.2,2.9-1,6.1-4.1,6.1h-13.3
				C251.2,66.5,249.1,63.3,250.3,60.4z"/>
			<path class="st0" d="M513.4,23.3l-26.5,64.9c-1.3,3.2,1,6.7,4.5,6.7h2.3c2,0,3.8-1.2,4.5-3l3.7-9.1c1-2.5,3.5-4.2,6.2-4.2h27.4
				c2.7,0,5.2,1.7,6.2,4.2l3.7,9.1c0.7,1.8,2.5,3,4.5,3h2.3c3.5,0,5.8-3.5,4.5-6.7l-26.5-64.9c-0.9-2.3-3.2-3.8-5.7-3.8h-5.5
				C516.6,19.5,514.3,21,513.4,23.3z M511.1,60.4l6.7-16.3c1.5-3.7,6.7-3.7,8.2,0l6.7,16.3c1.2,2.9-1,6.1-4.1,6.1h-13.3
				C512,66.5,509.9,63.3,511.1,60.4z"/>
			<path class="st0" d="M384.7,19.5h-15.2l0,0h-6.8c-2.9,0-5.3,2.4-5.3,5.3v64.9c0,2.9,2.4,5.3,5.3,5.3h22.6l0,0
				c21,0,38.1-17.2,37.7-38.4C422.7,35.9,405.4,19.5,384.7,19.5z M385.3,82.8L385.3,82.8l-10.9,0.1c-2.7,0-4.9-2.2-4.9-4.9V36.5
				c0-2.7,2.2-4.9,4.9-4.9h10.9v0.1c14.1,0,25.6,11.4,25.6,25.6C410.9,71.3,399.5,82.8,385.3,82.8z"/>
		</g>
	</g>
	<g>
		<path class="st0" d="M265.6,116.4c0.7,0,1.3,0.2,1.7,0.7c0.5,0.5,0.7,1,0.7,1.7c0,0.7-0.2,1.3-0.7,1.8c-0.5,0.5-1,0.7-1.7,0.7
			h-17.3v51.8c0,0.6-0.2,1.2-0.7,1.7c-0.5,0.5-1,0.7-1.7,0.7c-0.7,0-1.3-0.2-1.8-0.7c-0.5-0.5-0.7-1.1-0.7-1.7v-51.8h-17.2
			c-0.5,0-0.9-0.1-1.3-0.3c-0.4-0.2-0.7-0.5-0.9-0.9c-0.2-0.4-0.3-0.8-0.3-1.3c0-0.7,0.2-1.3,0.7-1.7c0.5-0.5,1.1-0.7,1.8-0.7H265.6
			z"/>
		<path class="st0" d="M313.7,170.6c0.7,0,1.3,0.2,1.8,0.7c0.5,0.5,0.7,1.1,0.7,1.7c0,0.7-0.2,1.2-0.7,1.7c-0.5,0.5-1.1,0.7-1.8,0.7
			h-32c-0.7,0-1.3-0.2-1.8-0.7c-0.5-0.5-0.7-1.1-0.7-1.8v-54.2c0-0.7,0.2-1.3,0.7-1.7c0.5-0.5,1.1-0.7,1.8-0.7h32
			c0.7,0,1.3,0.2,1.8,0.7c0.5,0.5,0.7,1,0.7,1.7c0,0.7-0.2,1.3-0.7,1.8c-0.5,0.5-1.1,0.7-1.8,0.7h-29.6v22.1h22.2
			c0.7,0,1.3,0.2,1.7,0.7c0.5,0.5,0.7,1.1,0.7,1.8c0,0.7-0.2,1.3-0.7,1.7c-0.5,0.5-1,0.7-1.7,0.7h-22.2v22.2H313.7z"/>
		<path class="st0" d="M354.5,145.5c3.6,1.1,6.6,3,8.8,5.7c2.2,2.7,3.3,5.6,3.3,8.9v0.1c-0.1,3.9-1.5,7.2-4.3,9.9
			c-3.9,3.7-8.5,5.6-13.8,5.4h-0.1h-2.9c-4.4,0-8.2-1.2-11.6-3.5c-3.3-2.4-5.4-5.3-6.2-8.8c-0.2-0.8,0-1.5,0.5-2.1
			c0.5-0.6,1.1-0.9,1.9-0.9c0.6,0,1.1,0.2,1.6,0.6c0.5,0.4,0.7,0.8,0.9,1.4c0.6,2.4,2.1,4.4,4.5,6c2.4,1.6,5.2,2.4,8.5,2.4h2.9
			c4,0.1,7.5-1.2,10.5-4c1.8-1.7,2.8-3.9,2.9-6.5V160c0-2.1-0.8-4.1-2.4-5.9c-1.6-1.8-3.6-3.1-6.2-3.8l-13.7-4.1
			c-2.4-0.7-4.5-1.8-6.3-3.3c-1.8-1.4-3.3-3.1-4.3-5.1c-1-2-1.5-4-1.5-6.1c0-2.8,0.8-5.3,2.4-7.7c1.6-2.4,3.8-4.2,6.6-5.6
			c2.8-1.4,5.9-2,9.2-2h2.9c2.9,0,5.6,0.5,8.1,1.6c2.5,1.1,4.7,2.5,6.4,4.4c1.7,1.9,2.8,4,3.3,6.4c0.2,0.7,0,1.4-0.5,2
			c-0.5,0.6-1.1,0.9-1.9,0.9c-0.6,0-1.1-0.2-1.5-0.5c-0.4-0.3-0.7-0.8-0.9-1.4c-0.6-2.4-2.1-4.4-4.5-6c-2.4-1.6-5.3-2.4-8.4-2.4
			h-2.9c-3.7,0-6.8,1-9.4,3c-2.6,2-3.9,4.5-3.9,7.3c0,2.2,0.8,4.2,2.4,6c1.6,1.8,3.6,3.1,6.2,3.8L354.5,145.5z"/>
		<path class="st0" d="M390.5,120.3c4.5-2.6,9.5-3.9,14.8-3.9s10.3,1.3,14.9,3.9c4.6,2.6,8.1,6.2,10.8,10.8
			c2.6,4.6,3.9,9.5,3.9,14.9s-1.3,10.3-3.9,14.8c-2.6,4.5-6.2,8.1-10.8,10.8c-4.6,2.7-9.5,4-14.9,4s-10.3-1.3-14.8-4
			c-4.5-2.6-8.1-6.2-10.8-10.8c-2.7-4.5-4-9.5-4-14.8s1.3-10.3,4-14.9C382.4,126.5,386,122.9,390.5,120.3z M387.9,163.3
			c4.8,4.8,10.6,7.2,17.4,7.2c6.8,0,12.6-2.4,17.4-7.2c4.8-4.8,7.2-10.6,7.2-17.4c0-6.8-2.4-12.6-7.2-17.4
			c-4.8-4.8-10.6-7.2-17.4-7.2c-6.8,0-12.6,2.4-17.4,7.2c-4.8,4.8-7.2,10.6-7.2,17.4C380.7,152.7,383.1,158.5,387.9,163.3z"/>
		<path class="st0" d="M466.7,153.6l13.5,17.9c0.6,0.8,0.7,1.7,0.3,2.6c-0.5,0.9-1.2,1.4-2.2,1.4c-0.8,0-1.5-0.3-2-1l-15.5-20.7
			h-10.8v19.2c0,0.6-0.2,1.2-0.7,1.7c-0.5,0.5-1.1,0.7-1.7,0.7c-0.7,0-1.2-0.2-1.7-0.7c-0.5-0.5-0.7-1.1-0.7-1.7v-54.3
			c0-0.7,0.2-1.3,0.7-1.7c0.5-0.5,1.1-0.7,1.8-0.7h15.6c5.1,0,9.5,1.7,13.2,5.1c3.7,3.4,5.7,7.6,6,12.7c0.2,4.8-1.2,9-4.1,12.7
			C475.2,150.6,471.3,152.8,466.7,153.6z M449.9,149h13.7c3.8,0,7.1-1.4,9.8-4.1c2.7-2.7,4.1-6,4.1-9.8c0-2.5-0.6-4.9-1.9-7
			c-1.2-2.1-2.9-3.8-5.1-5c-2.1-1.2-4.4-1.8-6.9-1.8h-13.7V149z"/>
		<path class="st0" d="M506.2,120.3c4.5-2.6,9.5-3.9,14.8-3.9c5.4,0,10.3,1.3,14.9,3.9c4.6,2.6,8.1,6.2,10.8,10.8
			c2.6,4.6,3.9,9.5,3.9,14.9s-1.3,10.3-3.9,14.8c-2.6,4.5-6.2,8.1-10.8,10.8c-4.6,2.7-9.5,4-14.9,4c-5.4,0-10.3-1.3-14.8-4
			c-4.5-2.6-8.1-6.2-10.8-10.8c-2.7-4.5-4-9.5-4-14.8s1.3-10.3,4-14.9C498.1,126.5,501.6,122.9,506.2,120.3z M503.6,163.3
			c4.8,4.8,10.6,7.2,17.4,7.2c6.8,0,12.6-2.4,17.4-7.2c4.8-4.8,7.2-10.6,7.2-17.4c0-6.8-2.4-12.6-7.2-17.4
			c-4.8-4.8-10.6-7.2-17.4-7.2c-6.8,0-12.6,2.4-17.4,7.2c-4.8,4.8-7.2,10.6-7.2,17.4C496.4,152.7,498.8,158.5,503.6,163.3z"/>
	</g>
	<g>
		<linearGradient id="SVGID_1_" gradientUnits="userSpaceOnUse" x1="116.7568" y1="175.4849" x2="116.7568" y2="19.51">
			<stop  offset="0" style="stop-color:#EF921E"/>
			<stop  offset="1" style="stop-color:#FAE300"/>
		</linearGradient>
		<path class="st1" d="M176.2,46.8l-39.9-23.1c-9.9-5.7-22-5.7-31.9,0L64.4,46.8c-1.1,0.6-2,1.3-3,2l0-0.1l-8.2,1h-6.7
			c-2.8,0-5.2,2.3-5.2,5.2v12.7c0,2.8,2.3,5.2,5.2,5.2h2.1c0,0.5-0.1,1.1-0.1,1.6v46.1c0,11.4,6.1,21.9,15.9,27.6l39.9,23.1
			c9.9,5.7,22,5.7,31.9,0l39.9-23.1c9.9-5.7,15.9-16.2,15.9-27.6V74.4C192.1,63.1,186.1,52.5,176.2,46.8z M176,115.1
			c0,9-4.8,17.2-12.5,21.7l-30.6,17.6c-7.8,4.5-17.3,4.5-25.1,0l-30.6-17.6c-7.8-4.5-12.5-12.8-12.5-21.7V79.9
			c0-9,4.8-17.2,12.5-21.7l30.6-17.6c7.8-4.5,17.3-4.5,25.1,0l30.6,17.6c7.8,4.5,12.5,12.8,12.5,21.7V115.1z"/>
		<linearGradient id="SVGID_2_" gradientUnits="userSpaceOnUse" x1="120.3158" y1="96.5217" x2="120.3158" y2="135.9445">
			<stop  offset="0" style="stop-color:#95BE26"/>
			<stop  offset="0.1192" style="stop-color:#89BB3D"/>
			<stop  offset="0.7293" style="stop-color:#4CADAC"/>
			<stop  offset="1" style="stop-color:#34A8D9"/>
		</linearGradient>
		<path class="st2" d="M146.3,96.5h-52H80.9V98c0,2.2,1.8,3.9,3.9,3.9h9.5v4.8c0,2.2,0.9,4.3,2.4,5.8l-5.3,5.3c-1.5,1.5-1.5,4,0,5.5
			l2.1,2.1c1.5,1.5,4,1.5,5.5,0l7.1-7.1l8.8,5.1v8.6c0,2.2,1.8,3.9,3.9,3.9h3c2.2,0,3.9-1.8,3.9-3.9v-8.6l8.8-5.1l7.1,7.1
			c1.5,1.5,4,1.5,5.5,0l2.1-2.1c1.5-1.5,1.5-4,0-5.5l-5.3-5.3c1.5-1.5,2.4-3.6,2.4-5.8v-4.8h9.5c2.2,0,3.9-1.8,3.9-3.9v-1.5H146.3z"
			/>
		<linearGradient id="SVGID_3_" gradientUnits="userSpaceOnUse" x1="120.3158" y1="96.5217" x2="120.3158" y2="57.0991">
			<stop  offset="0" style="stop-color:#EF921E"/>
			<stop  offset="0.4467" style="stop-color:#F5BE0E"/>
			<stop  offset="0.7957" style="stop-color:#F9D904"/>
			<stop  offset="1" style="stop-color:#FAE300"/>
		</linearGradient>
		<path class="st3" d="M155.8,91.1h-9.5v-4.8c0-2.2-0.9-4.3-2.4-5.8l5.3-5.3c1.5-1.5,1.5-4,0-5.5l-2.1-2.1c-1.5-1.5-4-1.5-5.5,0
			l-7.1,7.1l-8.8-5.1V61c0-2.2-1.8-3.9-3.9-3.9h-3c-2.2,0-3.9,1.8-3.9,3.9v8.6l-8.8,5.1L99,67.6c-1.5-1.5-4-1.5-5.5,0l-2.1,2.1
			c-1.5,1.5-1.5,4,0,5.5l5.3,5.3c-1.5,1.5-2.4,3.6-2.4,5.8v4.8h-9.5c-2.2,0-3.9,1.8-3.9,3.9v1.5h13.4h52h13.4V95
			C159.7,92.9,158,91.1,155.8,91.1z"/>
		<linearGradient id="SVGID_4_" gradientUnits="userSpaceOnUse" x1="116.7568" y1="175.4849" x2="116.7568" y2="96.5219">
			<stop  offset="0" style="stop-color:#EF921E"/>
			<stop  offset="1" style="stop-color:#FAE300"/>
		</linearGradient>
		<path class="st4" d="M176,96.5v18.6c0,9-4.8,17.2-12.5,21.7l-30.6,17.6c-7.8,4.5-17.3,4.5-25.1,0l-30.6-17.6
			c-7.8-4.5-12.5-12.8-12.5-21.7V96.5H48.5v24c0,0.8,0.1,1.5,0.1,2.2h-2.1c-2.8,0-5.2,2.3-5.2,5.2v12.7c0,2.8,2.3,5.2,5.2,5.2h6.7
			l8.2,1l-0.2-0.8c1,0.8,2.1,1.5,3.2,2.1l39.9,23.1c9.9,5.7,22,5.7,31.9,0l39.9-23.1c9.9-5.7,15.9-16.2,15.9-27.6v-24H176z"/>
	</g>
</g>
</svg>
